<svg version="1.1" id="Слой_1" xmlns="http://www.w3.org/2000/svg" xmlns:xlink="http://www.w3.org/1999/xlink" x="0" y="0" viewBox="0 0 437.1 137.8" xml:space="preserve"><style>.st0{clip-path:url(#SVGID_2_);fill:#fff}</style><defs><path id="SVGID_1_" d="M0 0h437.1v137.8H0z"/></defs><clipPath id="SVGID_2_"><use xlink:href="#SVGID_1_" overflow="visible"/></clipPath><path class="st0" d="M436.1 89.4c0 16.7-20.7 47.1-60.8 47.4H1V1h435.1v88.4z"/><path d="M436.1 89.4c0 16.7-20.7 47.1-60.8 47.4H1V1h435.1v88.4z" clip-path="url(#SVGID_2_)" fill="none" stroke="#003c61" stroke-width="2"/><path d="M436.1 89.4c0 16.7-20.7 47.1-60.8 47.4H161.2V1h274.9v88.4z" clip-path="url(#SVGID_2_)" fill="#003c61"/><path class="st0" d="M255.7 24.7c12.2 0 19.3 8.8 19.3 20.7 0 12.2-7.1 20.7-19.3 20.7-12.2 0-19.3-8.6-19.3-20.7 0-11.9 7.2-20.7 19.3-20.7m0 36.4c9.3 0 13.2-7.7 13.2-15.7 0-8.2-4.4-15.7-13.2-15.7-8.9-.1-13.2 7.5-13.2 15.7 0 8 4 15.7 13.2 15.7M283.2 25.4h10.9c8.3 0 14.1 2.7 14.1 10.1 0 5.5-3.1 8.3-8.2 9.6 5.5.5 9.2 4.1 9.2 9.7 0 8.6-7.1 10.7-15.3 10.7h-10.7V25.4zm5.8 17.1h3.2c5.6 0 10.3-.5 10.3-6.4 0-4.8-4.1-6-7.4-6h-6v12.4zm0 18.2h4.3c5.2 0 9.8-1.1 9.8-6.5 0-6.2-5.5-7.1-10.4-7.1H289v13.6zM318.5 25.4h5.7v40.1h-5.7zM366.5 48.9c0 11.3-5.7 17.3-15.6 17.3-9.9 0-15.6-6-15.6-17.3V25.4h5.7v22.7c0 7.7 2.4 13 9.8 13s9.8-5.3 9.8-13V25.4h5.7v23.5zM396.6 31.1c-2.9-1.2-5.1-1.4-8.1-1.4-3.2 0-7 1.1-7 5.3 0 7.7 17.2 5.9 17.2 19.1 0 8.6-6.6 11.9-14.7 11.9-2.8 0-6.3-.3-9-1.2l.8-5.3c2 .8 5.9 1.4 8.9 1.4 3.3 0 7.9-1.8 7.9-6.5 0-9-17.2-6.5-17.2-19 0-7.1 5.6-10.9 12.9-10.9 2.6 0 6.6.3 9.3 1.3l-1 5.3zM230 65.5h-5.7l-2-34.7h-.1l-10.8 34.6h-5.6L195 30.8h-.1l-2 34.7h-5.7l3.1-40.1h8.3l10 33.3 10-33.3h8.3zM188 76.3h3.2v32H188zM200.4 76.3h4l16.3 28.1h.1V76.3h3.1v31.9h-4.2l-16-27.5h-.1v27.5h-3.2zM232.8 104.2c1.9 1.2 4.1 1.9 7.1 1.9 3.9 0 7.2-2 7.2-6.5 0-6.3-14.7-7.1-14.7-15.4 0-5.1 4.5-8.3 10.1-8.3 1.6 0 4.1.2 6.3 1.1l-.5 2.9c-1.4-.8-3.7-1.2-5.8-1.2-3.3 0-6.9 1.4-6.9 5.5 0 6.4 14.7 6.5 14.7 15.8 0 6.5-5.5 9-10.5 9-3.1 0-5.5-.6-7.2-1.4l.2-3.4zM264.1 79h-9.4v-2.7h22V79h-9.4v29.2h-3.2zM283 76.3h3.2v32H283zM301.8 79h-9.4v-2.7h22V79h-9.5v29.2h-3.1zM344 97.1c0 9.4-6.9 11.7-11.6 11.7s-11.6-2.3-11.6-11.7V76.3h3.2v20.8c0 5.2 2.9 9 8.4 9s8.4-3.8 8.4-9V76.3h3.2v20.8zM359.8 79h-9.4v-2.7h22V79H363v29.2h-3.2zM379.1 76.3h15.6V79h-12.5v11.4h11.9v2.8h-11.9v12.3h13.1v2.7h-16.2z"/><g><defs><path id="SVGID_3_" d="M108.2 19.6c-29.8 3.8-65.9 29.3-81.5 54.9-3.1 5.1-11.1 18.9.7 25.5 4 2.3 9.8 3.5 16.6 3.5h.7c9.7-.1 19.4-2.9 29.3-7.5-2.5.6-5 1-7.4 1.2-.9.1-1.7.1-2.6.1-6.2 0-11.2-1.6-14.7-4.6-3.5-3-5.5-7.3-5.4-12.3 0-3.7 1-7.8 3.1-12.2 4.9-9.9 14.4-18.6 25.1-25 15.2-9.6 29.9-15.6 44.8-15.8h.7c7 0 13.1 1.3 17.6 3.8 2.2 1.2 4 2.8 5.3 4.6-.6-4.7-2.7-8.4-6.1-11.2-4.1-3.4-10.4-5.4-18.6-5.4-2.4-.1-4.9.1-7.6.4"/></defs><clipPath id="SVGID_4_"><use xlink:href="#SVGID_3_" overflow="visible"/></clipPath><linearGradient id="SVGID_5_" gradientUnits="userSpaceOnUse" x1="0" y1="137.768" x2="1" y2="137.768" gradientTransform="matrix(114.0463 0 0 -114.0463 26.457 15773.268)"><stop offset="0" stop-color="#f8dd7b"/><stop offset=".048" stop-color="#f8dd7b"/><stop offset=".521" stop-color="#ecb730"/><stop offset=".966" stop-color="#cf452b"/><stop offset="1" stop-color="#cf452b"/></linearGradient><path clip-path="url(#SVGID_4_)" fill="url(#SVGID_5_)" d="M15.6 19.1h124.9v84.5H15.6z"/></g><g><defs><path id="SVGID_6_" d="M117.8 30.1h-.7c-9.7.1-19.4 2.9-29.3 7.5 2.5-.6 5-1 7.4-1.2.9-.1 1.7-.1 2.6-.1 6.2 0 11.2 1.6 14.7 4.6 3.5 3 5.5 7.3 5.4 12.3 0 3.7-1 7.8-3.1 12.2-4.9 9.9-14.4 18.6-25.1 25-15.2 9.6-29.9 15.6-44.8 15.8h-.7c-7 0-13.1-1.3-17.6-3.8-2.2-1.2-4-2.8-5.3-4.6.6 4.7 2.7 8.4 6.1 11.3 4.1 3.4 10.4 5.4 18.5 5.4 2.4 0 4.9-.2 7.6-.5 29.8-3.8 66-29.3 81.5-54.9 3.1-5.1 11.1-18.9-.7-25.5-3.9-2.2-9.8-3.5-16.5-3.5z"/></defs><clipPath id="SVGID_7_"><use xlink:href="#SVGID_6_" overflow="visible"/></clipPath><linearGradient id="SVGID_8_" gradientUnits="userSpaceOnUse" x1="0" y1="137.761" x2="1" y2="137.761" gradientTransform="scale(-83.1973 83.1973) rotate(-25 -309.015 72.598)"><stop offset="0" stop-color="#f8dd7b"/><stop offset=".048" stop-color="#f8dd7b"/><stop offset=".521" stop-color="#ecb730"/><stop offset=".966" stop-color="#cf452b"/><stop offset="1" stop-color="#cf452b"/></linearGradient><path clip-path="url(#SVGID_7_)" fill="url(#SVGID_8_)" d="M123.8 162.4L-11.1 99.5 43.5-17.7l135 62.9z"/></g></svg>